<svg id="visual" viewBox="0 0 1200 300" width="1200" height="300" xmlns="http://www.w3.org/2000/svg" xmlns:xlink="http://www.w3.org/1999/xlink" version="1.1"><path d="M0 242L33.3 245.2C66.7 248.3 133.3 254.7 200 253.5C266.7 252.3 333.3 243.7 400 246.7C466.7 249.7 533.3 264.3 600 269.5C666.7 274.7 733.3 270.3 800 266.3C866.7 262.3 933.3 258.7 1000 252.8C1066.7 247 1133.3 239 1166.7 235L1200 231L1200 301L1166.7 301C1133.3 301 1066.7 301 1000 301C933.3 301 866.7 301 800 301C733.3 301 666.7 301 600 301C533.3 301 466.7 301 400 301C333.3 301 266.7 301 200 301C133.3 301 66.7 301 33.3 301L0 301Z" fill="#a80019"></path><path d="M0 278L33.3 276.5C66.7 275 133.3 272 200 269.7C266.7 267.3 333.3 265.7 400 261.7C466.7 257.7 533.3 251.3 600 248.3C666.7 245.3 733.3 245.7 800 250C866.7 254.3 933.3 262.7 1000 262.8C1066.7 263 1133.3 255 1166.7 251L1200 247L1200 301L1166.7 301C1133.3 301 1066.7 301 1000 301C933.3 301 866.7 301 800 301C733.3 301 666.7 301 600 301C533.3 301 466.7 301 400 301C333.3 301 266.7 301 200 301C133.3 301 66.7 301 33.3 301L0 301Z" fill="#900d18"></path><path d="M0 274L33.3 274.5C66.7 275 133.3 276 200 276.5C266.7 277 333.3 277 400 274.8C466.7 272.7 533.3 268.3 600 269.3C666.7 270.3 733.3 276.7 800 276.8C866.7 277 933.3 271 1000 271.7C1066.7 272.3 1133.3 279.7 1166.7 283.3L1200 287L1200 301L1166.7 301C1133.3 301 1066.7 301 1000 301C933.3 301 866.7 301 800 301C733.3 301 666.7 301 600 301C533.3 301 466.7 301 400 301C333.3 301 266.7 301 200 301C133.3 301 66.7 301 33.3 301L0 301Z" fill="#781317"></path></svg>