<svg id="visual" viewBox="0 0 1200 300" width="1200" height="300" xmlns="http://www.w3.org/2000/svg" xmlns:xlink="http://www.w3.org/1999/xlink" version="1.1"><path d="M0 56L33.3 52.8C66.7 49.7 133.3 43.3 200 44.5C266.7 45.7 333.3 54.3 400 51.3C466.7 48.3 533.3 33.7 600 28.5C666.7 23.3 733.3 27.7 800 31.7C866.7 35.7 933.3 39.3 1000 45.2C1066.7 51 1133.3 59 1166.7 63L1200 67L1200 0L1166.7 0C1133.3 0 1066.7 0 1000 0C933.3 0 866.7 0 800 0C733.3 0 666.7 0 600 0C533.3 0 466.7 0 400 0C333.3 0 266.7 0 200 0C133.3 0 66.7 0 33.3 0L0 0Z" fill="#a80019"></path><path d="M0 20L33.3 21.5C66.7 23 133.3 26 200 28.3C266.7 30.7 333.3 32.3 400 36.3C466.7 40.3 533.3 46.7 600 49.7C666.7 52.7 733.3 52.3 800 48C866.7 43.7 933.3 35.3 1000 35.2C1066.7 35 1133.3 43 1166.7 47L1200 51L1200 0L1166.7 0C1133.3 0 1066.7 0 1000 0C933.3 0 866.7 0 800 0C733.3 0 666.7 0 600 0C533.3 0 466.7 0 400 0C333.3 0 266.7 0 200 0C133.3 0 66.7 0 33.3 0L0 0Z" fill="#900d18"></path><path d="M0 24L33.3 23.5C66.7 23 133.3 22 200 21.5C266.7 21 333.3 21 400 23.2C466.7 25.3 533.3 29.7 600 28.7C666.7 27.7 733.3 21.3 800 21.2C866.7 21 933.3 27 1000 26.3C1066.7 25.7 1133.3 18.3 1166.7 14.7L1200 11L1200 0L1166.7 0C1133.3 0 1066.7 0 1000 0C933.3 0 866.7 0 800 0C733.3 0 666.7 0 600 0C533.3 0 466.7 0 400 0C333.3 0 266.7 0 200 0C133.3 0 66.7 0 33.3 0L0 0Z" fill="#781317"></path></svg>